
<svg version="1.0" xmlns="http://www.w3.org/2000/svg"
 width="512.000000pt" height="512.000000pt" viewBox="0 0 512.000000 512.000000"
 preserveAspectRatio="xMidYMid meet">

<g transform="translate(0.000000,512.000000) scale(0.100000,-0.100000)"
fill="#000000" stroke="none">
<path d="M2482 4855 c-112 -31 -190 -113 -219 -230 l-16 -65 -36 0 c-60 0
-122 -38 -148 -90 -21 -40 -23 -59 -23 -190 0 -131 2 -150 23 -190 16 -33 34
-51 67 -67 44 -23 50 -23 430 -23 380 0 386 0 430 23 33 16 51 34 68 67 20 40
22 59 22 190 0 131 -2 150 -22 190 -27 52 -89 90 -149 90 -37 0 -38 1 -48 53
-14 66 -61 148 -104 181 -82 63 -186 86 -275 61z m148 -165 c26 -13 47 -34 60
-60 36 -71 38 -70 -130 -70 -109 0 -150 3 -150 12 0 32 43 96 77 116 48 27 93
28 143 2z m290 -410 l0 -120 -360 0 -360 0 0 120 0 120 360 0 360 0 0 -120z"/>
<path d="M1220 4304 c-143 -38 -247 -144 -285 -290 -14 -54 -15 -249 -13
-1740 l3 -1679 23 -55 c33 -81 85 -146 152 -189 108 -70 16 -66 1470 -66
l1315 0 58 23 c111 45 195 133 234 246 17 48 18 140 18 1741 0 1868 5 1736
-66 1845 -43 67 -108 119 -189 152 -53 22 -68 23 -417 26 l-363 3 0 -80 0 -80
358 -3 c315 -3 361 -5 388 -20 41 -22 90 -71 112 -112 16 -29 17 -143 20
-1705 2 -1206 -1 -1685 -9 -1715 -15 -56 -99 -140 -156 -155 -30 -8 -405 -11
-1335 -9 -1201 3 -1295 4 -1324 20 -41 22 -90 71 -112 112 -16 29 -17 142 -17
1726 0 1584 1 1697 17 1726 22 41 71 90 112 112 27 15 73 17 389 20 l357 3 0
79 0 80 -342 -1 c-269 0 -355 -4 -398 -15z"/>
</g>
</svg>
